<?xml version="1.0" standalone="no"?>
<!DOCTYPE svg PUBLIC "-//W3C//DTD SVG 20010904//EN"
 "http://www.w3.org/TR/2001/REC-SVG-20010904/DTD/svg10.dtd">
<svg version="1.0" xmlns="http://www.w3.org/2000/svg"
 width="512.000000pt" height="512.000000pt" viewBox="0 0 512.000000 512.000000"
 preserveAspectRatio="xMidYMid meet">
<metadata>
Created by potrace 1.16, written by Peter Selinger 2001-2019
</metadata>
<g transform="translate(0.000000,512.000000) scale(0.100000,-0.100000)"
fill="#000000" stroke="none">
<path d="M2510 4780 c-43 -43 -31 -109 26 -130 31 -12 68 2 90 34 45 71 -57
155 -116 96z"/>
<path d="M1200 2600 l0 -1880 1360 0 1360 0 0 583 0 582 -312 312 -313 312
-24 -24 c-19 -21 -33 -25 -77 -25 l-54 0 0 -131 0 -131 -29 -29 c-41 -41 -101
-41 -142 0 l-29 29 0 131 0 131 -60 0 -60 0 0 -51 c0 -43 -5 -55 -29 -80 -41
-41 -101 -41 -142 0 -24 25 -29 37 -29 80 l0 51 -60 0 -60 0 0 -131 0 -131
-29 -29 -29 -29 -202 0 -202 0 -29 29 c-23 23 -29 38 -29 71 0 33 6 48 29 71
l29 29 131 0 131 0 0 60 0 60 -51 0 c-72 0 -109 37 -109 109 l0 51 -60 0 -60
0 0 -51 c0 -43 -5 -55 -29 -80 -41 -41 -101 -41 -142 0 -29 29 -29 30 -29 151
0 121 0 122 29 151 l29 29 131 0 131 0 0 60 0 60 -51 0 c-43 0 -55 5 -80 29
-41 41 -41 101 0 142 25 24 37 29 80 29 l51 0 0 49 c0 39 6 56 26 80 22 27 33
31 73 31 39 0 52 -5 74 -28 27 -28 27 -30 27 -160 l0 -132 140 0 140 0 0 103
0 102 -648 648 -647 647 -63 0 -62 0 0 -1880z m803 992 c21 -22 27 -38 27 -74
0 -39 -5 -50 -31 -72 -24 -20 -41 -26 -80 -26 l-49 0 0 -46 c0 -63 -40 -104
-100 -104 -33 0 -48 6 -71 29 -29 29 -29 31 -29 146 0 115 0 117 29 146 29 29
30 29 153 29 123 0 125 0 151 -28z m1429 -1439 c28 -26 28 -28 28 -151 0 -123
0 -124 -29 -153 -29 -29 -30 -29 -151 -29 -121 0 -122 0 -151 29 -23 23 -29
38 -29 71 0 33 6 48 29 71 25 24 37 29 80 29 l51 0 0 49 c0 39 6 56 26 80 22
26 33 31 72 31 36 0 52 -6 74 -27z m-1591 -12 c24 -24 29 -38 29 -75 l0 -46
51 0 c43 0 55 -5 80 -29 23 -23 29 -38 29 -71 0 -33 -6 -48 -29 -71 -29 -29
-30 -29 -151 -29 -121 0 -122 0 -151 29 -29 29 -29 31 -29 146 0 115 0 117 29
146 23 23 38 29 71 29 33 0 48 -6 71 -29z"/>
<path d="M2951 2805 c-19 -21 -33 -25 -77 -25 l-54 0 0 -60 0 -60 162 0 163 0
-85 85 c-47 47 -85 85 -85 85 0 0 -11 -12 -24 -25z"/>
<path d="M2340 2720 l0 -60 140 0 140 0 0 60 0 60 -140 0 -140 0 0 -60z"/>
<path d="M2339 451 c-16 -16 -29 -36 -29 -45 0 -28 22 -64 47 -75 33 -15 384
-15 417 0 35 16 52 61 37 98 -20 46 -45 51 -252 51 l-191 0 -29 -29z"/>
</g>
</svg>
