<?xml version="1.0" standalone="no"?>
<!DOCTYPE svg PUBLIC "-//W3C//DTD SVG 20010904//EN"
 "http://www.w3.org/TR/2001/REC-SVG-20010904/DTD/svg10.dtd">
<svg version="1.0" xmlns="http://www.w3.org/2000/svg"
 width="512.000000pt" height="512.000000pt" viewBox="0 0 512.000000 512.000000"
 preserveAspectRatio="xMidYMid meet">
<metadata>
Created by potrace 1.16, written by Peter Selinger 2001-2019
</metadata>
<g transform="translate(0.000000,512.000000) scale(0.100000,-0.100000)"
fill="#000000" stroke="none">
<path d="M1633 5029 c-43 -12 -90 -62 -103 -107 -5 -20 -10 -128 -10 -239 l0
-203 263 0 c145 0 521 3 836 7 l572 6 -114 116 c-71 72 -117 127 -121 144 -5
21 -18 33 -49 47 -26 12 -85 62 -152 130 l-110 110 -490 -1 c-269 0 -504 -5
-522 -10z"/>
<path d="M1522 458 c3 -250 4 -265 25 -298 12 -19 37 -44 55 -55 32 -20 53
-20 888 -23 l855 -2 -121 122 c-117 119 -121 124 -103 140 28 26 25 89 -4 116
-20 19 -35 22 -97 22 l-75 0 -115 114 -115 114 -598 7 -598 6 3 -263z"/>
</g>
</svg>
